<?xml version="1.0" encoding="UTF-8"?><svg id="a" xmlns="http://www.w3.org/2000/svg" width="100" height="100" viewBox="0 0 100 100"><path d="M54.022,27.952c.333-2.162,.721-3.908,.831-3.908s.942,1.996,1.829,4.435c1.524,4.157,2.079,5.072,2.661,4.49,.139-.139,.665-2.633,1.164-5.543,.776-4.518,.859-5.377,.527-5.626-.693-.582-.97,.139-1.635,4.074-.36,2.079-.693,3.825-.748,3.88s-.776-1.718-1.58-3.963c-.804-2.273-1.635-4.379-1.857-4.739-.416-.665-1.136-.804-1.33-.277-.443,1.414-1.774,10.892-1.552,11.114,.721,.721,1.053-.111,1.691-3.936Z" fill="#fff" fill-rule="evenodd" stroke="#fff" stroke-linejoin="round" stroke-width=".25"/><path d="M43.379,31.86c.804-3.492,.804-3.52,1.663-3.686,2.3-.499,2.522-.416,3.575,1.691,.915,1.829,1.635,2.411,1.968,1.58,.055-.194-.998-2.688-2.384-5.543-2.023-4.157-2.633-5.183-3.076-5.183-.305,0-.61,.166-.665,.333-.277,.721-2.356,10.532-2.356,11.031,0,.887,1.053,.721,1.275-.222Zm1.94-8.37c.055,0,.416,.61,.804,1.386,.388,.748,.693,1.441,.693,1.497,0,.194-1.94,.554-2.079,.388-.139-.139,.416-3.27,.582-3.27Z" fill="#fff" fill-rule="evenodd" stroke="#fff" stroke-linejoin="round" stroke-width=".25"/><path d="M37.919,34.133c1.414-1.192,1.94-4.13,.721-4.13-.443,0-.582,.249-.721,1.22-.416,3.16-3.603,2.855-5.294-.499-.998-1.968-1.053-3.825-.139-4.906,.776-.887,2.106-1.025,2.91-.305,.637,.582,1.33,.61,1.524,.083,.277-.721-1.802-2.134-3.076-2.106-.249,.028-.887,.194-1.386,.416-1.053,.471-1.968,2.217-1.996,3.769-.028,4.795,4.629,8.841,7.456,6.458Z" fill="#fff" fill-rule="evenodd" stroke="#fff" stroke-linejoin="round" stroke-width=".25"/><path d="M72.12,36.683c4.573-3.132,4.324-3.215,2.411,.804-1.774,3.797-1.996,4.573-1.136,4.573,.499,0,8.758-4.85,9.784-5.737,.471-.416,.388-1.192-.111-1.192-.166,0-1.968,1.025-4.074,2.273-2.079,1.219-3.853,2.3-3.963,2.356s.665-1.663,1.718-3.853c1.663-3.381,1.885-3.991,1.552-4.324-.333-.36-.887-.055-3.908,2.023-1.912,1.33-3.548,2.356-3.631,2.273-.055-.055,.637-1.857,1.552-4.019,.915-2.134,1.663-4.074,1.663-4.296,0-.776-.804-.748-1.22,.028-.194,.416-1.275,2.827-2.356,5.377-2.633,6.181-2.467,6.596,1.718,3.714Z" fill="#fff" fill-rule="evenodd" stroke="#fff" stroke-linejoin="round" stroke-width=".25"/><path d="M19.183,42.254c2.55,2.106,4.241,3.326,4.49,3.215,.721-.249,4.074-4.518,3.908-4.961-.277-.748-.942-.388-2.467,1.414-.859,.998-1.608,1.857-1.663,1.885-.083,.028-.831-.499-1.663-1.164l-1.552-1.247,1.109-1.358c1.164-1.469,1.33-1.996,.665-2.217-.249-.111-.831,.36-1.608,1.247l-1.22,1.414-1.414-1.192-1.414-1.192,1.691-2.023c1.414-1.718,1.635-2.106,1.33-2.467-.194-.222-.416-.416-.527-.416-.083,.028-.998,.998-2.051,2.217-1.996,2.356-2.245,2.744-1.912,3.187,.111,.166,2.051,1.829,4.296,3.659Z" fill="#fff" fill-rule="evenodd" stroke="#fff" stroke-linejoin="round" stroke-width=".25"/><path d="M30.297,55.918c.721-1.912,2.328-4.878,3.603-6.541,2.494-3.354,7.289-7.317,8.814-7.317,.61,0,.776-.166,.915-.915,.36-1.857,.388-1.857,1.192-1.552,.776,.305,2.55,1.857,2.55,2.245,0,.111-.499,.471-1.136,.776l-1.109,.582,.194,3.104c.111,1.718,.249,3.16,.333,3.243,.055,.083,.055-1.303-.055-3.049l-.194-3.215,1.275-.61,1.275-.61-.582-.804c-.582-.831-1.912-1.774-2.966-2.079-.499-.166-.61-.055-.776,.721-.333,1.718-.443,1.885-1.109,1.885-1.691,0-7.234,4.906-9.673,8.564-1.358,2.051-2.938,5.349-2.91,6.125,0,.222,.166-.028,.36-.554Z" fill="#fff" fill-rule="evenodd" stroke="#fff" stroke-linejoin="round" stroke-width=".25"/><path d="M79.992,49.128c-.249-.554-.471-1.053-.471-1.109s1.691-1.081,3.769-2.245c3.936-2.245,3.797-2.217,4.573-.887,.305,.554,1.358,.693,1.358,.166,0-.166-.582-1.358-1.303-2.633-1.192-2.134-1.829-2.688-2.384-2.134-.083,.111,0,.527,.222,.97,.222,.416,.416,.887,.416,1.025,0,.166-1.275,.998-2.827,1.885-1.58,.887-3.243,1.829-3.714,2.106l-.887,.527-.554-.998c-.388-.637-.721-.915-1.025-.804-.637,.249-.527,.776,.721,2.966,1.358,2.439,1.635,2.744,2.19,2.411,.333-.222,.333-.388-.083-1.247Z" fill="#fff" fill-rule="evenodd" stroke="#fff" stroke-linejoin="round" stroke-width=".25"/><path d="M16.855,46.772c-5.211-3.936-5.017-3.825-5.432-3.686-.194,.083-.36,.305-.36,.499,0,.388,.582,.887,4.795,4.13,1.358,1.053,2.411,1.912,2.356,1.968-.055,.028-1.94-.083-4.241-.277-2.273-.194-4.241-.277-4.351-.222-.721,.416,.083,1.247,3.132,3.243,1.829,1.219,3.409,2.328,3.492,2.467,.111,.166-1.552,.222-4.518,.166-4.545-.111-4.684-.083-4.684,.443s.249,.582,3.88,.776c2.134,.111,4.823,.166,5.959,.139,1.829-.083,2.079-.139,2.162-.637,.055-.416-.665-1.053-3.132-2.744-1.746-1.219-3.132-2.245-3.076-2.328,.083-.055,1.829,.028,3.908,.194,2.079,.166,3.88,.249,4.019,.166,.776-.471,0-1.33-3.908-4.296Z" fill="#fff" fill-rule="evenodd" stroke="#fff" stroke-linejoin="round" stroke-width=".25"/><path d="M38.196,53.285c.859-2.467,1.857-4.518,3.271-6.763,.97-1.497,1.164-2.134,.305-.998-1.635,2.19-4.407,8.204-4.351,9.479,0,.277,.36-.499,.776-1.718Z" fill="#fff" fill-rule="evenodd" stroke="#fff" stroke-linejoin="round" stroke-width=".25"/><path d="M54.992,49.017c-.111,.166-.111,.36-.028,.443,.083,.111,.166,.028,.166-.139,0-.527,1.053-.388,1.358,.139,.166,.277,.305,.36,.305,.194,.028-.748-1.414-1.275-1.802-.637Z" fill="#fff" fill-rule="evenodd" stroke="#fff" stroke-linejoin="round" stroke-width=".25"/><path d="M92.824,55.641c-.194-.305-.942-.166-3.936,.637-2.023,.554-3.797,1.025-3.963,1.025-.139,0,1.275-1.552,3.16-3.437,2.3-2.356,3.381-3.603,3.298-3.963-.111-.582-.859-.721-1.885-.36-.388,.139-2.605,.776-4.933,1.414-4.047,1.109-4.933,1.58-4.324,2.19,.166,.166,1.829-.166,4.213-.804,2.162-.582,3.936-.97,3.936-.887,0,.111-1.497,1.663-3.326,3.492-3.049,3.021-3.742,4.019-3.104,4.407,.36,.222,10.837-2.661,10.976-3.021,.055-.194,0-.499-.111-.693Z" fill="#fff" fill-rule="evenodd" stroke="#fff" stroke-linejoin="round" stroke-width=".25"/><path d="M45.291,51.483c.111-.776,.139-1.469,.055-1.552-.055-.083-.194,.527-.305,1.303-.111,.776-.139,1.469-.083,1.552,.083,.055,.222-.527,.333-1.303Z" fill="#fff" fill-rule="evenodd" stroke="#fff" stroke-linejoin="round" stroke-width=".25"/><path d="M54.659,51.206c0,.831,.055,1.192,.111,.748,.055-.416,.055-1.081,0-1.524-.055-.416-.111-.055-.111,.776Z" fill="#fff" fill-rule="evenodd" stroke="#fff" stroke-linejoin="round" stroke-width=".25"/><path d="M56.96,50.181c-.083-.111-.166,.055-.139,.36,0,.305,.083,.388,.166,.166,.083-.194,.055-.443-.028-.527Z" fill="#fff" fill-rule="evenodd" stroke="#fff" stroke-linejoin="round" stroke-width=".25"/><path d="M56.821,52.204c0,.305,.083,.388,.166,.166,.083-.194,.055-.443-.028-.527-.083-.111-.166,.055-.139,.36Z" fill="#fff" fill-rule="evenodd" stroke="#fff" stroke-linejoin="round" stroke-width=".25"/><path d="M53.606,52.786c.527-.111,.527-.139-.028-.166-.305,0-.804,.249-1.109,.582q-.527,.637,.028,.194c.305-.277,.804-.527,1.109-.61Z" fill="#fff" fill-rule="evenodd" stroke="#fff" stroke-linejoin="round" stroke-width=".25"/><path d="M49.172,59.105c-.61,.222-.887,.388-.61,.416,.887,0,2.411-.859,3.021-1.774,.333-.471,.637-.887,.665-.942,.028-.055,.388,.194,.776,.527l.721,.637-1.136,1.164c-.637,.665-1.524,1.33-1.968,1.524-.443,.166-.721,.388-.665,.471,.277,.249,2.578-1.33,3.271-2.245,.637-.804,.859-.915,1.691-.804,1.053,.111,1.635-.36,.748-.637-.97-.305-.61-.693,.693-.693,.693,0,1.33,.028,1.414,.055,.36,.166,.61-.859,.471-1.94-.139-.942-.333-1.275-.942-1.608-.443-.222-.804-.305-.804-.194,0,.139,.277,.36,.61,.499,.804,.333,1.081,1.33,.305,1.053-.333-.111-.277,0,.194,.388,.582,.499,.61,.637,.305,1.025-.693,.831-3.631,.416-3.631-.527,0-.499,.416-.748,1.663-1.025,.831-.166,.776-.194-.333-.083-1.968,.194-2.023-.499-.083-1.192,.471-.166,.637-.277,.416-.305-.222,0-.721,.139-1.109,.277-.859,.333-1.136,.776-.859,1.33,.139,.249,.166,.61,.111,.804-.083,.194,.028,.582,.222,.831,.222,.249,.554,.776,.748,1.136,.388,.665,.36,.665-.554,.471-1.275-.249-2.217-1.303-2.467-2.716-.222-1.136-.222-1.109-.111,.277,.111,1.358,.028,1.552-.776,2.439-.499,.527-1.386,1.136-1.996,1.358Z" fill="#fff" fill-rule="evenodd" stroke="#fff" stroke-linejoin="round" stroke-width=".25"/><path d="M44.709,54.782c.111-.776,.139-1.469,.083-1.552-.083-.055-.222,.527-.333,1.303-.111,.776-.139,1.469-.055,1.552,.055,.083,.194-.527,.305-1.303Z" fill="#fff" fill-rule="evenodd" stroke="#fff" stroke-linejoin="round" stroke-width=".25"/><path d="M44.155,59.105c.055,2.217,.139,2.688,.831,3.853,1.109,1.912,4.739,4.102,7.844,4.739,.416,.083-.277-.249-1.58-.776-2.661-1.025-3.603-1.58-4.933-2.799-.776-.693-1.718-2.051-1.718-2.439,0-.055,.97-.083,2.162-.055l2.134,.055-1.94-.194c-2.273-.194-2.633-.388-2.633-1.275,0-.499,.166-.693,.776-.776l.748-.111-.748-.055c-.693-.028-.748-.139-.859-1.358-.055-.721-.111-.166-.083,1.192Z" fill="#fff" fill-rule="evenodd" stroke="#fff" stroke-linejoin="round" stroke-width=".25"/><path d="M29.826,57.636c.083-.194,.055-.443-.028-.527-.083-.111-.166,.055-.139,.36,0,.305,.083,.388,.166,.166Z" fill="#fff" fill-rule="evenodd" stroke="#fff" stroke-linejoin="round" stroke-width=".25"/><path d="M42.187,57.054c-.139,.028-1.829,.277-3.825,.554-1.968,.305-3.742,.61-3.936,.665-.277,.083-.249,.416,.055,1.441,.416,1.386,1.497,2.578,2.3,2.578,.249,0,.028-.222-.499-.499-1.164-.582-2.051-2.411-1.358-2.855,.554-.36,.804-.305,.804,.166,0,.721,.637,1.802,1.164,1.968,.277,.083,.748,0,.998-.222,.388-.305,.388-.222-.055,.471l-.527,.831,.582-.527c.333-.305,.61-.721,.61-.97,.028-.416,.055-.416,.36,0,.388,.527,1.386,1.081,1.912,1.081,.194,0-.083-.222-.61-.499-1.524-.748-2.106-3.076-.748-3.104,.111,0,.194,.249,.194,.527,0,.305,.305,.915,.665,1.33,.637,.721,.748,.748,1.303,.388l.637-.388-.499,.804-.471,.804,.554-.665c.443-.499,.582-1.025,.582-2.273,0-.887-.083-1.608-.194-1.608Z" fill="#fff" fill-rule="evenodd" stroke="#fff" stroke-linejoin="round" stroke-width=".25"/><path d="M58.041,57.581q.194-.305-.554,0c-.443,.194-.471,.249-.083,.249,.249,.028,.554-.111,.637-.249Z" fill="#fff" fill-rule="evenodd" stroke="#fff" stroke-linejoin="round" stroke-width=".25"/><path d="M29.549,59.161c.055-.249,.055-.637,0-.831-.083-.166-.139,.028-.139,.499,0,.443,.055,.61,.139,.333Z" fill="#fff" fill-rule="evenodd" stroke="#fff" stroke-linejoin="round" stroke-width=".25"/><path d="M47.592,59.715c.249-.083,.028-.139-.499-.139s-.748,.055-.471,.139c.249,.055,.693,.055,.97,0Z" fill="#fff" fill-rule="evenodd" stroke="#fff" stroke-linejoin="round" stroke-width=".25"/><path d="M29.05,71.217c.721-1.885,1.497-2.966,2.882-3.963,.61-.443,.998-.804,.859-.804-.305,0-1.552,.831-1.802,1.192-.61,.859-1.33-1.552-1.663-5.488l-.222-2.494,.111,2.772c.055,1.524,.305,3.437,.554,4.268,.471,1.497,.443,1.524-.249,2.91-.388,.776-.776,1.774-.859,2.245-.083,.443,.111,.166,.388-.637Z" fill="#fff" fill-rule="evenodd" stroke="#fff" stroke-linejoin="round" stroke-width=".25"/><path d="M38.723,63.595c.942-.083,.915-.111-.277-.139-.748-.028-1.33,.055-1.33,.194s.388,.582,.887,.998c.637,.554,1.053,.693,1.58,.554,.721-.166,2.245-1.58,2.245-2.079,0-.305-.055-.305-1.247,0l-.831,.222,.776,.028c.416,0,.748,.139,.748,.305,0,.139-.333,.277-.748,.305-.443,.028-1.247,.083-1.802,.111-.582,.055-1.053,0-1.053-.139s.471-.305,1.053-.36Z" fill="#fff" fill-rule="evenodd" stroke="#fff" stroke-linejoin="round" stroke-width=".25"/><path d="M74.837,70.053c-1.275,.527-1.857,2.273-1.192,3.52,.194,.333,.333,.721,.333,.831,0,.139-1.33,.277-2.966,.333-3.132,.083-4.351,.305-1.635,.305h1.58l-.554,.804c-.305,.416-.499,.859-.388,.97,.083,.083-.055,.166-.36,.166-.388,0-.443,.055-.166,.249,.222,.111,.36,.305,.36,.416-.028,.083-.028,.194,0,.222,0,.055,.083,.443,.139,.859,.111,.721,.083,.748-.471,.416-.443-.277-.637-.277-.721-.028-.083,.222-.36,.249-.998,.055-.499-.139-1.081-.249-1.303-.222-.222,.028,.139,.166,.831,.36,1.081,.305,1.247,.443,1.164,.998-.028,.36-.139,.721-.222,.804-.222,.222-4.185-.665-5.931-1.33-3.215-1.192-6.098-3.465-5.377-4.185,.194-.194,1.053,.111,2.688,.97,2.217,1.164,5.931,2.55,6.181,2.273,.055-.055-.61-.333-1.497-.582-.859-.277-1.885-.637-2.245-.776l-.693-.249,.831-.527c.443-.305,1.053-.554,1.33-.554,.305,0,.443-.083,.36-.194-.388-.36,1.608-1.386,2.578-1.33,.61,.028,.693,.028,.194-.055-.776-.111-.748-.139,1.164-1.968,1.386-1.303,2.023-2.134,2.134-2.772,.166-.831,1.469-2.273,2.079-2.273,.499,0,.249-.748-.499-1.441-1.025-.942-1.829-1.33-2.716-1.33-.61,0-.665,.083-.416,.527,.582,1.109,.36,1.414-.998,1.414-.721,0-2.356,.249-3.686,.554-1.303,.305-2.993,.665-3.769,.804l-1.386,.277,1.497-.139c.831-.083,2.55-.388,3.853-.693,1.303-.333,2.993-.527,3.742-.471l1.358,.083-.139-1.053c-.111-.776-.055-1.025,.249-1.025,.61,0,1.829,.693,2.439,1.358q.527,.582-.582,1.552c-.637,.554-1.192,1.275-1.275,1.746-.277,1.386-4.518,5.072-7.76,6.735l-1.053,.554-1.303-.804c-1.635-.998-2.439-1.22-2.827-.748-.36,.443,.277,1.912,.97,2.162,.721,.305,.443,.721-.693,1.053-.61,.194-1.053,.388-.97,.471,.055,.083,.665-.083,1.358-.333q1.22-.471,2.827,.36c1.94,.97,4.823,1.885,6.763,2.134,.887,.111,1.386,.305,1.386,.554,0,.443,.333,.499,.721,.111,.194-.194,.637-.083,1.358,.277,2.19,1.109,3.021,.527,3.326-2.356,.277-2.55,.333-2.661,1.136-2.356,1.081,.416,1.718,.333,2.356-.305,.554-.554,.582-.804,.416-3.076-.249-3.659-1.109-4.85-2.91-4.102Z" fill="#fff" fill-rule="evenodd" stroke="#fff" stroke-linejoin="round" stroke-width=".25"/><path d="M33.429,66.173c-.166,0-.222,.028-.166,.083,.055,.028,.36,.249,.665,.471q.527,.388,.166-.083c-.194-.249-.499-.471-.665-.471Z" fill="#fff" fill-rule="evenodd" stroke="#fff" stroke-linejoin="round" stroke-width=".25"/><path d="M42.104,78.701c-2.772-1.025-4.933-2.3-6.79-3.963-1.635-1.524-3.465-3.853-3.465-4.435,0-.222,.637-.97,1.441-1.691,.804-.721,1.386-1.33,1.303-1.33-.111,0-.831,.582-1.608,1.275-.804,.721-1.608,1.635-1.829,2.079-.499,.97-.527,1.469-.028,.582l.333-.637,.748,1.081c.942,1.441,3.187,3.686,4.795,4.795,1.58,1.081,4.933,2.633,6.208,2.855,.527,.083,.028-.166-1.109-.61Z" fill="#fff" fill-rule="evenodd" stroke="#fff" stroke-linejoin="round" stroke-width=".25"/><path d="M55.546,68.113c-.443-.111-1.081-.222-1.386-.222-.443,0-.416,.055,.139,.222,.388,.111,.998,.222,1.386,.222,.61,0,.61-.028-.139-.222Z" fill="#fff" fill-rule="evenodd" stroke="#fff" stroke-linejoin="round" stroke-width=".25"/><path d="M57.015,68.584c.166,.055,.499,.055,.693,0,.166-.083,.028-.139-.36-.139s-.527,.055-.333,.139Z" fill="#fff" fill-rule="evenodd" stroke="#fff" stroke-linejoin="round" stroke-width=".25"/><path d="M57.348,72.963c2.3-.388,9.063-2.19,9.396-2.522,.249-.249-.776-.028-2.744,.61-4.268,1.358-7.65,1.912-11.752,1.912-2.134,0-3.52,.083-3.049,.166,1.524,.333,5.516,.249,8.149-.166Z" fill="#fff" fill-rule="evenodd" stroke="#fff" stroke-linejoin="round" stroke-width=".25"/><path d="M46.816,72.326c-.831-.277-2.051-.776-2.688-1.109s-1.275-.61-1.386-.582c-.111,0,.665,.443,1.718,.97,1.081,.499,2.384,.998,2.91,1.081,.693,.111,.527,0-.554-.36Z" fill="#fff" fill-rule="evenodd" stroke="#fff" stroke-linejoin="round" stroke-width=".25"/><path d="M30.519,72.548c0,.388,.055,.527,.139,.333,.055-.166,.055-.499,0-.693-.083-.166-.139-.028-.139,.36Z" fill="#fff" fill-rule="evenodd" stroke="#fff" stroke-linejoin="round" stroke-width=".25"/><path d="M27.442,74.959c-.333,.249-.194,.249,.61,0,.582-.194,.859-.36,.61-.416-.333-.083-.416-.305-.277-.915,.111-.443,.111-.804,.055-.804-.083,0-.249,.416-.36,.887-.083,.499-.388,1.053-.637,1.247Z" fill="#fff" fill-rule="evenodd" stroke="#fff" stroke-linejoin="round" stroke-width=".25"/><path d="M30.214,73.989c0,.443-.166,.776-.333,.776-.139,0-.194,.139-.083,.305,.277,.471,.721-.471,.582-1.219q-.111-.499-.166,.139Z" fill="#fff" fill-rule="evenodd" stroke="#fff" stroke-linejoin="round" stroke-width=".25"/><path d="M24.255,78.063c-.859,.527-1.718,.443-1.33-.139,.111-.166,1.025-.748,2.079-1.33,1.025-.554,1.857-1.081,1.857-1.136,0-.083-.028-.111-.055-.111-.055,.028-.693,.139-1.441,.277-.748,.111-1.552,.416-1.802,.665-.416,.388-.36,.388,.471,0,.499-.249,1.053-.388,1.247-.333,.166,.083-.249,.388-.97,.721-1.469,.665-2.051,1.414-1.552,1.912,.471,.471,.665,.416,1.829-.36,1.192-.804,.942-.942-.333-.166Z" fill="#fff" fill-rule="evenodd" stroke="#fff" stroke-linejoin="round" stroke-width=".25"/><path d="M64.665,76.178c-.305,0-.388,.083-.166,.166,.194,.083,.443,.055,.527-.028,.111-.083-.055-.166-.36-.139Z" fill="#fff" fill-rule="evenodd" stroke="#fff" stroke-linejoin="round" stroke-width=".25"/><path d="M65.773,76.456c-.305,0-.388,.083-.166,.166,.194,.083,.443,.055,.527-.028,.111-.083-.055-.166-.36-.139Z" fill="#fff" fill-rule="evenodd" stroke="#fff" stroke-linejoin="round" stroke-width=".25"/><path d="M67.27,76.899c.333,.055,.887,.055,1.247,0,.333-.055,.055-.111-.637-.111s-.97,.055-.61,.111Z" fill="#fff" fill-rule="evenodd" stroke="#fff" stroke-linejoin="round" stroke-width=".25"/><path d="M29.937,77.287c-.055,1.164-2.55,3.104-3.16,2.494-.194-.194-.139-.443,.222-.859,.277-.305,.36-.554,.194-.554s-.36,.111-.471,.249c-.083,.139-.721,.471-1.414,.748-1.081,.416-1.303,.416-1.524,.083-.139-.249-.249-.277-.249-.055,0,.554,.499,.665,1.552,.388,.804-.222,1.109-.194,1.414,.111,.527,.554,.665,.527,1.746-.222,1.164-.776,2.051-1.968,1.857-2.439-.111-.277-.166-.277-.166,.055Z" fill="#fff" fill-rule="evenodd" stroke="#fff" stroke-linejoin="round" stroke-width=".25"/><path d="M53.745,79.504c-1.192,.305-5.959,.388-8.038,.166-1.275-.139-1.386-.139-.693,.111,1.303,.443,7.511,.388,9.285-.111,.831-.222,1.275-.416,.97-.416s-.998,.111-1.524,.249Z" fill="#fff" fill-rule="evenodd" stroke="#fff" stroke-linejoin="round" stroke-width=".25"/></svg>